# xmcd
#
# Track frame offsets: 
#        150
#        22754
#        45299
#        69257
#        77148
#        98003
#        119070
#        141553
#        165505
#        182443
#        214415
#
# Disc length: 3174 seconds
#
# Revision: 0
# Processed by: cddbd v1.5.2PL0 Copyright (c) Steve Scherf et al.
# Submitted via: ExactAudioCopy v0.99pb5
#
DISCID=8d0c640b
DTITLE=Clubroot - II: MMX
DYEAR=2010
DGENRE=Dubstep
TTITLE0=Orbiting
TTITLE1=Waterways
TTITLE2=Dry Cured
TTITLE3=Sjambok
TTITLE4=Toe to Toe
TTITLE5=Whistles and Horns
TTITLE6=Running on Empty
TTITLE7=Physicality
TTITLE8=Dust Storm
TTITLE9=Closure
TTITLE10=Cherubs Cry
EXTD=
EXTT0=
EXTT1=
EXTT2=
EXTT3=
EXTT4=
EXTT5=
EXTT6=
EXTT7=
EXTT8=
EXTT9=
EXTT10=
PLAYORDER=
